<svg xmlns="http://www.w3.org/2000/svg" viewBox="0 0 512 512" style="enable-background:new 0 0 512 512" xml:space="preserve"><path style="fill:#f3d49d" d="M451.177 256.355 245.792 122.63l-63.871-31.174-93.589-22.51L0 251.31l47.208 40.632 159.959 137.679 57.158 37.894c16.164 10.445 37.734 5.808 48.179-10.356s5.808-37.734-10.356-48.178c0 0 5.642 3.546 11.854 7.659 4.921 3.258 11.059 4.992 17.404 5.145 12.859.629 25.695-5.413 33.184-17.004 7.539-11.667 7.728-25.961 1.752-37.464 15.799 8.351 35.634 3.386 45.516-11.906 10.444-16.163 5.809-37.73-10.351-48.176l11.848 7.657c16.164 10.445 37.734 5.808 48.179-10.356 10.442-16.166 5.806-37.736-10.357-48.181z"/><path style="fill:#eebf70" d="M45.091 158.219 0 251.31l47.208 40.632 159.959 137.679 57.158 37.894c16.164 10.445 37.734 5.808 48.179-10.356s5.808-37.734-10.356-48.178c0 0 5.642 3.546 11.854 7.659 4.921 3.258 11.059 4.992 17.404 5.145 12.859.629 25.695-5.413 33.184-17.004 7.539-11.667 7.728-25.961 1.752-37.464L120.231 196.484l-75.14-38.265z"/><path style="fill:#a67420" d="M215.539 352.459c-16.164-10.445-37.734-5.808-48.179 10.356 10.445-16.164 5.808-37.734-10.356-48.178-16.164-10.445-37.734-5.808-48.179 10.356 10.445-16.164 5.808-37.734-10.356-48.178-16.164-10.445-37.734-5.808-48.178 10.356l-35.724 55.287c-10.445 16.164-5.808 37.734 10.356 48.178 16.164 10.445 37.734 5.808 48.178-10.356-10.445 16.164-5.808 37.734 10.356 48.178 16.164 10.445 37.734 5.808 48.178-10.356-10.445 16.164-5.808 37.734 10.356 48.178 16.164 10.445 37.734 5.808 48.179-10.356l35.724-55.287c10.445-16.164 5.808-37.733-10.355-48.178zm30.253-229.829-46.631 70.773c-10.445 16.164-32.014 20.801-48.178 10.356-16.164-10.445-20.801-32.014-10.356-48.178l69.875-108.506 254.95-8.171L512 195.78l-71.987 53.306L245.792 122.63z"/><path style="fill:#7a5007" d="M215.539 352.459c-16.164-10.445-37.734-5.808-48.179 10.356 10.445-16.164 5.808-37.734-10.356-48.178l-73.547 113.82c16.164 10.445 37.734 5.808 48.178-10.356-10.445 16.164-5.808 37.734 10.356 48.178 16.164 10.445 37.734 5.808 48.179-10.356l35.724-55.287c10.445-16.163 5.808-37.732-10.355-48.177zm100.188-184.295 124.286 80.923L512 195.78l-26.792-90.296z"/></svg>