<?xml version="1.0" encoding="iso-8859-1"?>
<!-- Generator: Adobe Illustrator 19.0.0, SVG Export Plug-In . SVG Version: 6.00 Build 0)  -->
<!-- License: CC0. Made by SVG Repo: https://www.svgrepo.com/svg/201803/horse-chess -->
<svg version="1.1" id="Layer_1" xmlns="http://www.w3.org/2000/svg" xmlns:xlink="http://www.w3.org/1999/xlink" x="0px" y="0px"
	 viewBox="0 0 512 512" style="enable-background:new 0 0 512 512;" xml:space="preserve">
<path style="fill:#D6E5F6;" d="M253.659,0H86.661C73.809,0,63.389,10.422,63.389,23.273c0,12.853,10.42,23.273,23.273,23.273h13.521
	v187.988c0,12.854,10.42,23.273,23.273,23.273h39.201c6.173,0,12.092-2.451,16.455-6.816l32.084-32.084v56.076L107,379.181
	c-6.656,6.654-8.647,16.665-5.046,25.363c3.603,8.695,12.089,14.365,21.501,14.365H388.54c12.853,0,23.273-10.418,23.273-23.273
	V158.161C411.814,70.951,340.865,0,253.659,0z"/>
<path style="fill:#A4C6EC;" d="M295.989,5.762v413.147h92.551c12.853,0,23.273-10.418,23.273-23.273V158.161
	C411.814,85.61,362.705,24.318,295.989,5.762z"/>
<path style="fill:#385C8E;" d="M438.483,372.364H73.517c-12.853,0-23.273,10.422-23.273,23.273v93.091
	c0,12.854,10.42,23.273,23.273,23.273h364.966c12.853,0,23.273-10.418,23.273-23.273v-93.091
	C461.756,382.785,451.336,372.364,438.483,372.364z"/>
<path style="fill:#1D3366;" d="M438.483,372.364H256V512h182.483c12.853,0,23.273-10.418,23.273-23.273v-93.091
	C461.756,382.785,451.336,372.364,438.483,372.364z"/>
</svg>
